<?xml version="1.0" encoding="utf-8"?>
<!-- Generator: Adobe Illustrator 19.1.0, SVG Export Plug-In . SVG Version: 6.00 Build 0)  -->
<!DOCTYPE svg PUBLIC "-//W3C//DTD SVG 1.1//EN" "http://www.w3.org/Graphics/SVG/1.1/DTD/svg11.dtd">
<svg version="1.1" id="Layer_1" xmlns="http://www.w3.org/2000/svg" xmlns:xlink="http://www.w3.org/1999/xlink" x="0px" y="0px"
	 viewBox="0 0 800 550" enable-background="new 0 0 800 550" xml:space="preserve">
<g id="ipad-mini-vert">
	<g>
		<g id="XMLID_5_">
			<g>
				<path fill="#FFFFFF" d="M793,49.4v451.2c0,22.9-17.2,40.1-40.1,40.1H46.6c-22.9,0-40.1-17.2-40.1-40.1V49.4
					c0-22.9,17.2-40.1,40.1-40.1h706.3C775.8,9.3,793,26.5,793,49.4z M790,500.6V49.4c0-21.2-16-37.1-37.1-37.1H46.6
					c-21.2,0-37.1,16-37.1,37.1v451.2c0,21.2,15.9,37.1,37.1,37.1h706.3C774.1,537.7,790,521.8,790,500.6z"/>
				<path d="M790,49.4v451.2c0,21.2-16,37.1-37.1,37.1H46.6c-21.2,0-37.1-16-37.1-37.1V49.4c0-21.2,15.9-37.1,37.1-37.1h706.3
					C774.1,12.3,790,28.3,790,49.4z"/>
			</g>
			<g>
			</g>
		</g>
		<g id="XMLID_3_">
			<g>
				<path fill="#1A1A1A" d="M786.5,472.2v28.5c0,9.3-3.4,17.8-9.5,24c-6.1,6.2-14.7,9.6-24,9.6H46.6c-9.4,0-17.9-3.4-24-9.6
					c-6.1-6.2-9.5-14.7-9.5-24v-28.5V77.9V49.4c0-9.3,3.4-17.8,9.5-24c6.1-6.2,14.7-9.6,24-9.6h706.3c9.4,0,17.9,3.4,24,9.6
					c6.1,6.2,9.5,14.7,9.5,24v28.5V472.2z M783.4,500.6v-28.5V77.9V49.4c0-8.5-3.1-16.3-8.6-21.8c-5.6-5.6-13.4-8.7-21.9-8.7H46.6
					c-8.5,0-16.3,3.1-21.9,8.7c-5.6,5.6-8.6,13.3-8.6,21.8v28.5v394.3v28.5c0,8.5,3.1,16.3,8.6,21.8c5.6,5.6,13.4,8.7,21.9,8.7
					h706.3c8.5,0,16.3-3.1,21.9-8.7C780.4,516.9,783.4,509.1,783.4,500.6z"/>
				<path fill="#1A1A1A" d="M783.4,472.2v28.5c0,8.5-3.1,16.3-8.6,21.8c-5.6,5.6-13.4,8.7-21.9,8.7H46.6c-8.5,0-16.3-3.1-21.9-8.7
					c-5.6-5.6-8.6-13.3-8.6-21.8v-28.5V77.9V49.4c0-8.5,3.1-16.3,8.6-21.8c5.6-5.6,13.4-8.7,21.9-8.7h706.3c8.5,0,16.3,3.1,21.9,8.7
					c5.6,5.6,8.6,13.3,8.6,21.8v28.5V472.2z"/>
			</g>
			<g>
			</g>
		</g>
		<path fill="#4D4D4D" d="M55.4,275.2c0-2.9-2.4-5.3-5.3-5.3s-5.3,2.4-5.3,5.3c0,2.9,2.4,5.3,5.3,5.3S55.4,278.1,55.4,275.2z
			 M47.1,275.2c0-1.7,1.3-3,3-3c1.7,0,3,1.3,3,3c0,1.7-1.3,3-3,3C48.5,278.2,47.1,276.8,47.1,275.2z"/>
		<path fill="#333333" d="M734.5,275.3c0,10.7,8.7,19.4,19.4,19.4c10.7,0,19.4-8.7,19.4-19.4c0-10.7-8.7-19.4-19.4-19.4
			C743.2,255.9,734.5,264.6,734.5,275.3z M770.3,275.3c0,9-7.4,16.4-16.4,16.4c-9,0-16.4-7.4-16.4-16.4c0-9,7.4-16.4,16.4-16.4
			C763,258.9,770.3,266.2,770.3,275.3z"/>
		<path fill="#333333" d="M746.8,270.9v8.8c0,1.7,1.4,3,3,3h8.8c1.7,0,3-1.4,3-3v-8.8c0-1.7-1.4-3-3-3h-8.8
			C748.2,267.8,746.8,269.2,746.8,270.9z M758.6,270.9C758.6,270.9,758.6,270.9,758.6,270.9l0,8.8c0,0,0,0,0,0h-8.8c0,0,0,0,0,0
			v-8.8c0,0,0,0,0,0H758.6z"/>
		<path d="M83.9,41.4v467.2c0,2.1,1.7,3.8,3.8,3.8h623.5c2.1,0,3.8-1.7,3.8-3.8V41.4c0-2.1-1.7-3.8-3.8-3.8H87.7
			C85.6,37.6,83.9,39.3,83.9,41.4z M711.2,41.4v467.2H87.7V41.4H711.2z"/>
	</g>
	<rect x="87.6" y="41.4" opacity="0.1" fill="#FFFFFF" width="623.5" height="467.2"/>
</g>
</svg>
