<?xml version="1.0" encoding="utf-8"?>
<!-- Generator: Adobe Illustrator 19.1.0, SVG Export Plug-In . SVG Version: 6.00 Build 0)  -->
<!DOCTYPE svg PUBLIC "-//W3C//DTD SVG 1.1//EN" "http://www.w3.org/Graphics/SVG/1.1/DTD/svg11.dtd">
<svg version="1.1" id="Layer_1" xmlns="http://www.w3.org/2000/svg" xmlns:xlink="http://www.w3.org/1999/xlink" x="0px" y="0px"
	 viewBox="0 0 600 800" enable-background="new 0 0 600 800" xml:space="preserve">
<g id="iphone">
	<g>
		<g id="XMLID_4_">
			<g>
				<path d="M490.2,733v12c0,14.4-5.6,28-15.8,38.2S450.6,799,436.1,799H171.3c-14.4,0-28-5.6-38.2-15.8
					c-10.2-10.2-15.8-23.8-15.8-38.2v-12h4v12c0,27.6,22.4,50,50.1,50h264.9c27.6,0,50.1-22.4,50.1-50v-12H490.2z"/>
				<rect x="486.2" y="79.5" width="4" height="647.5"/>
				<path d="M490.2,61v12.5h-4V61c0-27.6-22.4-50-50.1-50H171.3c-27.7,0-50.1,22.4-50.1,50v12.5h-4V61c0-14.4,5.6-28,15.8-38.2
					C143.2,12.6,156.8,7,171.3,7h264.9c14.4,0,28,5.6,38.2,15.8C484.6,33,490.2,46.6,490.2,61z"/>
				<path d="M482.2,61v684c0,25.4-20.7,46-46.1,46H171.3c-25.4,0-46.1-20.6-46.1-46V61c0-25.4,20.7-46,46.1-46h264.9
					C461.5,15,482.2,35.6,482.2,61z"/>
				<polygon fill="#4D4D4D" points="428.2,1 428.2,3 367.2,3 367.2,1 369.8,-0.5 426.2,-0.5 				"/>
				<polygon points="121.2,79.5 121.2,727 117.2,727 117.2,287.5 117.2,284.5 117.2,256.5 117.2,253.5 117.2,221 117.2,218 
					117.2,190 117.2,187 117.2,154 117.2,151 117.2,114.5 117.2,111.5 117.2,79.5 				"/>
				<path fill="#4D4D4D" d="M113.2,256.5v28h-1l-1.5-1.5v-25c0.4-0.4,0.8-0.8,1.5-1.5H113.2z"/>
				<path fill="#4D4D4D" d="M113.2,190v28h-1l-1.5-1.5v-25c0.4-0.4,0.8-0.8,1.5-1.5H113.2z"/>
				<path fill="#4D4D4D" d="M113.2,114.5V151h-1l-1.5-1.5V116c0.4-0.4,0.8-0.8,1.5-1.5H113.2z"/>
				<path d="M426.2-0.5h-56.4L367.2,1v2h61V1L426.2-0.5z M110.1,254.4l0.9-0.9h1.2h1V221h-1H111l-0.9-0.9l-1.5-1.5l-0.9-0.9v-1.2
					v-25v-1.2l0.9-0.9l1.5-1.5l0.9-0.9h1.2h1v-33h-1H111l-0.9-0.9l-1.5-1.5l-0.9-0.9v-1.2V116v-1.2l0.9-0.9l1.5-1.5l0.9-0.9h1.2h1
					V61c0-15.5,6.1-30.1,17-41c11-11,25.5-17,41.1-17h192.9V1v-1.7l1.5-0.9l2.6-1.5l0.7-0.4h0.8h56.4h1l0.8,0.6l2,1.5l1.2,0.9V1v2
					h4.9c15.5,0,30.1,6,41,17c11,11,17,25.5,17,41v684c0,15.5-6,30.1-17,41c-11,11-25.5,17-41,17H171.3c-15.5,0-30.1-6-41.1-17
					c-11-11-17-25.5-17-41V287.5h-1H111l-0.9-0.9l-1.5-1.5l-0.9-0.9V283v-25v-1.2l0.9-0.9L110.1,254.4z M112.2,151h1v-36.5h-1
					c-0.7,0.7-1.1,1.1-1.5,1.5v33.5L112.2,151z M112.2,218h1v-28h-1c-0.7,0.7-1.1,1.1-1.5,1.5v25L112.2,218z M112.2,284.5h1v-28h-1
					c-0.7,0.7-1.1,1.1-1.5,1.5v25L112.2,284.5z M490.2,745v-12h-4v12c0,27.6-22.4,50-50.1,50H171.3c-27.7,0-50.1-22.4-50.1-50v-12
					h-4v12c0,14.4,5.6,28,15.8,38.2c10.2,10.2,23.8,15.8,38.2,15.8h264.9c14.4,0,28-5.6,38.2-15.8S490.2,759.4,490.2,745z
					 M490.2,727V79.5h-4V727H490.2z M490.2,73.5V61c0-14.4-5.6-28-15.8-38.2C464.1,12.6,450.6,7,436.1,7H171.3
					c-14.4,0-28,5.6-38.2,15.8C122.8,33,117.2,46.6,117.2,61v12.5h4V61c0-27.6,22.4-50,50.1-50h264.9c27.6,0,50.1,22.4,50.1,50v12.5
					H490.2z M482.2,745V61c0-25.4-20.7-46-46.1-46H171.3c-25.4,0-46.1,20.6-46.1,46v684c0,25.4,20.7,46,46.1,46h264.9
					C461.5,791,482.2,770.3,482.2,745z M121.2,727V79.5h-4v32v3V151v3v33v3v28v3v32.5v3v28v3V727H121.2z"/>
			</g>
			<g>
				<path fill="none" stroke="#000000" stroke-miterlimit="10" d="M482.2,61v684c0,25.4-20.7,46-46.1,46H171.3
					c-25.4,0-46.1-20.6-46.1-46V61c0-25.4,20.7-46,46.1-46h264.9C461.5,15,482.2,35.6,482.2,61z"/>
			</g>
		</g>
		<path fill="#4D4D4D" d="M275.2,81.5h55c4.1,0,7.5-3.4,7.5-7.5c0-4.1-3.4-7.5-7.5-7.5h-55c-4.1,0-7.5,3.4-7.5,7.5
			C267.7,78.1,271.1,81.5,275.2,81.5z M275.2,70.5h55c1.9,0,3.5,1.6,3.5,3.5c0,1.9-1.6,3.5-3.5,3.5h-55c-1.9,0-3.5-1.6-3.5-3.5
			C271.7,72.1,273.3,70.5,275.2,70.5z"/>
		<path d="M463.2,115h-320c-2.2,0-4,1.8-4,4v568c0,2.2,1.8,4,4,4h320c2.2,0,4-1.8,4-4V119C467.2,116.8,465.4,115,463.2,115z
			 M463.2,687h-320V119h320V687z"/>
		<path fill="#4D4D4D" d="M303.5,709c-18.6,0-33.8,15.1-33.8,33.8c0,18.6,15.1,33.8,33.8,33.8c18.6,0,33.8-15.1,33.8-33.8
			C337.2,724.1,322.1,709,303.5,709z M303.5,772.5c-16.4,0-29.8-13.3-29.8-29.8S287,713,303.5,713s29.8,13.3,29.8,29.8
			S319.9,772.5,303.5,772.5z"/>
		<path fill="#4D4D4D" d="M303.2,52.3c4.7,0,8.5-3.8,8.5-8.5c0-4.7-3.8-8.5-8.5-8.5c-4.7,0-8.5,3.8-8.5,8.5
			C294.7,48.5,298.5,52.3,303.2,52.3z M303.2,38.3c3,0,5.5,2.5,5.5,5.5c0,3-2.5,5.5-5.5,5.5c-3,0-5.5-2.5-5.5-5.5
			C297.7,40.8,300.2,38.3,303.2,38.3z"/>
		<circle fill="#4D4D4D" cx="303.2" cy="43.7" r="3"/>
	</g>
	<rect x="143.2" y="119" opacity="0.1" fill="#FFFFFF" width="320" height="568"/>
</g>
</svg>
